<svg xmlns="http://www.w3.org/2000/svg">
  <symbol id="space-bubble" viewBox="0 0 252 252">
    <path d="M126 0l108.9 62.9v125.8L126 251.6 17.1 188.7V62.9L126 0z"/>
    <path d="M64.5 176.8l-4.8-6.8a2.2 2.2 0 0 1 .2-2.5L77 147.3h-8.4a2 2 0 0 1-2.1-2.1v-14.9a2 2 0 0 1 2.1-2.1h12a57.7 57.7 0 0 1-2.3-15.7 48.9 48.9 0 0 1 97.7 0 50.7 50.7 0 0 1-2.3 15.7h12a2 2 0 0 1 2.1 2.1v14.9a2 2 0 0 1-2.1 2.1h-10.5l16.9 20.2a2.2 2.2 0 0 1 0 2.5l-4.8 6.8a2.2 2.2 0 0 1-2.7.6l-9.9-5.2H77.1l-9.9 5.2a2.3 2.3 0 0 1-2.7-.6zm31.4-29.5H82.3l-18.2 21.5 2.9 4.1 34.9-18.4zm-25.2-14.9v10.7h113v-10.7zm14.3-4.1h84.5a49.9 49.9 0 0 0 2.5-15.7 44.7 44.7 0 0 0-89.5 0c0 5.3.4 10.9 2.4 15.7zm19.8 29.5l-19.7 10.3h28.1zm-3.5-10.5l17.4 20.9h14.9l17.4-20.9zm46.1 10.5l-8.5 10.3H167zm22.5-10.5h-13.7l-6.2 7.2 35.1 18.4 2.9-3.9z"/>
  </symbol>
  <symbol id="mecha-stilts" viewBox="0 0 252 252">
    <path d="M126 0l109.1 63v126L126 252 16.9 189V63L126 0z"/>
    <path d="M62.7 172.6a2.1 2.1 0 1 1 0-4.1H73v-13H62.7a2 2 0 0 1-2.1-2.1v-40.9a2 2 0 0 1 2.1-2.1h13.6c1-29.4 23-45.5 49.7-45.5s48.6 16.1 49.7 45.5h13.7a2 2 0 0 1 2.1 2.1v40.8a2 2 0 0 1-2.1 2.1H179v13h10.3a2.1 2.1 0 1 1 0 4.1zm2.1-57.9v36.6h122.5v-36.7zm12.4 40.8v13h13.2v-13zm3.3-44.9h91.1c-1-26.7-21.3-41.4-45.5-41.4s-44.6 14.6-45.6 41.3zm14.1 44.9v13h20.7v-13zm24.8 0v13h13.2v-13zm56.1-14.1H125a2.1 2.1 0 1 1 0-4.1h50.5a2.1 2.1 0 0 1 0 4.1zm-38.7 14.1v13h20.7v-13zm24.8 0v13h13.2v-13z"/>
  </symbol>
  <symbol id="super-domes" viewBox="0 0 252 252">
    <path d="M126 0l109.1 63v126L126 252 16.9 189V63L126 0z"/>
    <path d="M66.2 172.6a2 2 0 0 1-2.1-2.1v-25H36.8a2.1 2.1 0 0 1 0-4.1h15.5v-13.5a2 2 0 0 1 2.1-2.1h8.1a65.6 65.6 0 0 1 63.3-50.3c.2-.2.4-.2.8 0 30.6.2 56.1 21.7 62.9 50.3h8.1a2 2 0 0 1 2.1 2.1v13.5h15.5a2.1 2.1 0 1 1 0 4.1h-27.3v25a2 2 0 0 1-2.1 2.1zM56.5 130v11.4h139v-11.5zm65.4-50.1c-26.5 1.7-48.6 20.9-55 45.9H89zm-53.6 65.5v23H124v-23zM123.9 84l-29.8 41.8h29.8zm4.1-4.3v46.1h57.1a61.5 61.5 0 0 0-57-46.2zm0 65.8v23h9.3v-23zm13.5 0v23h42.2v-23z"/>
  </symbol>
  <defs>
    <linearGradient id="line-fill">
      <stop offset="0%" stop-color="#ff5e3a" />
      <stop offset="0%" stop-color="#ff5e3a" />
    </linearGradient>
  </defs>
</svg>
