<svg xmlns="http://www.w3.org/2000/svg"><symbol id="mecha-stilt" viewBox="0 0 252 252"><path d="M126 0L16.9 63v126L126 252l109.1-63V63zm65.4 153.3a2 2 0 0 1-2.1 2.1H179v13h10.3a2.1 2.1 0 0 1 0 4.1H62.7a2.1 2.1 0 0 1 0-4.1H73v-13H62.7a2 2 0 0 1-2.1-2.1v-40.8a2 2 0 0 1 2.1-2.1h13.6C77.4 81.1 99.3 65 126 65s48.6 16.1 49.7 45.5h13.7a2 2 0 0 1 2.1 2.1z"/><path d="M161.6 155.4h13.3v13.04h-13.3zm-24.8 0h20.7v13.04h-20.7zm-59.6 0h13.3v13.04H77.2zm17.4 0h20.7v13.04H94.6zm24.8 0h13.2v13.04h-13.2zm-54.6-40.8v36.6h122.5v-36.6zm110.7 26.7H125a2.1 2.1 0 0 1 0-4.1h50.5a2.1 2.1 0 1 1 0 4.1zm-4-30.8h-91c1-26.7 21.3-41.4 45.5-41.4s44.5 14.7 45.5 41.4z"/></symbol><symbol id="super-dome" viewBox="0 0 252 252"><path d="M126 0L16.9 63v126L126 252l109.1-63V63zm89.2 145.5h-27.3v25a2 2 0 0 1-2.1 2.1H66.2a1.9 1.9 0 0 1-2.1-2.1v-25H36.8a2.1 2.1 0 1 1 0-4.1h15.5v-13.5a2 2 0 0 1 2.1-2.1h8.1a65.6 65.6 0 0 1 63.3-50.3c.2-.2.4-.2.8 0 30.6.2 56.1 21.7 62.9 50.3h8.1a2 2 0 0 1 2.1 2.1v13.5h15.5a2.1 2.1 0 1 1 0 4.1z"/><path d="M141.5 145.5h42.2v22.97h-42.2zm-13.4 0h9.3v22.97h-9.3zm-59.8 0H124v22.97H68.3zm-11.8-15.6h139.1v11.38H56.5zm128.7-4.1h-57.1V79.6a61.5 61.5 0 0 1 57.1 46.2zM123.9 84v41.8H94.1L123.9 84zm-2-4.2l-32.9 46H66.8c6.4-25 28.6-44.3 55.1-46z"/></symbol><symbol id="space-bubble" viewBox="0 0 252 252"><path d="M126-.5l-109.1 63v126l109.1 63 109.1-63v-126zm66.3 170.3l-4.8 6.8a2.2 2.2 0 0 1-2.7.6l-9.9-5.2H77l-9.9 5.2a2.3 2.3 0 0 1-2.7-.6l-4.8-6.8a2.2 2.2 0 0 1 .2-2.5L77 147h-8.5a2 2 0 0 1-2.1-2.1V130a2 2 0 0 1 2.1-2.1h12a57.8 57.8 0 0 1-2.3-15.7 48.9 48.9 0 0 1 97.9 0 50.6 50.6 0 0 1-2.3 15.7h12a2 2 0 0 1 2.1 2.1v15a2 2 0 0 1-2.1 2.1h-10.5l17 20.3a2.2 2.2 0 0 1 0 2.4z"/><path d="M167 167.9h-28.1l8.5-10.3 19.6 10.3zm-53.8 0H85.1l19.6-10.3 8.5 10.3zm-11.4-13.6l-34.9 18.4-2.9-4.2L82.2 147h13.6l6 7.3zm49.1-7.3l-17.4 20.9h-14.9L101.2 147h49.7zm37.2 21.8l-2.9 3.9-35.1-18.4 6.2-7.3h13.6l18.2 21.8zM70.6 132.1h113.2v10.76H70.6zM172 112.3a50.2 50.2 0 0 1-2.5 15.7H84.9c-2.1-4.8-2.5-10.3-2.5-15.7a44.8 44.8 0 0 1 89.6 0z"/></symbol></svg>